HIERARCHY
ROOT hip
{
  OFFSET 0 0 0
  CHANNELS 6 Xposition Yposition Zposition Zrotation Yrotation Xrotation
  JOINT abdomen
  {
    OFFSET 0 20.6881 -0.73152
    CHANNELS 3 Zrotation Xrotation Yrotation
    JOINT chest
    {
      OFFSET 0 11.7043 -0.48768
      CHANNELS 3 Zrotation Xrotation Yrotation
      JOINT neck
      {
        OFFSET 0 22.1894 -2.19456
        CHANNELS 3 Zrotation Xrotation Yrotation
        JOINT head
        {
          OFFSET -0.24384 7.07133 1.2192
          CHANNELS 3 Zrotation Xrotation Yrotation
          JOINT leftEye
          {
            OFFSET 4.14528 8.04674 8.04672
            CHANNELS 3 Zrotation Xrotation Yrotation
            End Site
            {
              OFFSET 1 0 0
            }
          }
          JOINT rightEye
          {
            OFFSET -3.6576 8.04674 8.04672
            CHANNELS 3 Zrotation Xrotation Yrotation
            End Site
            {
              OFFSET 1 0 0
            }
          }
        }
      }
      JOINT rCollar
      {
        OFFSET -2.68224 19.2634 -4.8768
        CHANNELS 3 Zrotation Xrotation Yrotation
        JOINT rShldr
        {
          OFFSET -8.77824 -1.95073 1.46304
          CHANNELS 3 Zrotation Xrotation Yrotation
          JOINT rForeArm
          {
            OFFSET -28.1742 -1.7115 0.48768
            CHANNELS 3 Zrotation Xrotation Yrotation
            JOINT rHand
            {
              OFFSET -22.5879 0.773209 7.07136
              CHANNELS 3 Zrotation Xrotation Yrotation
              JOINT rThumb1
              {
                OFFSET -1.2192 -0.487915 3.41376
                CHANNELS 3 Zrotation Xrotation Yrotation
                JOINT rThumb2
                {
                  OFFSET -3.37035 -0.52449 3.41376
                  CHANNELS 3 Zrotation Xrotation Yrotation
                  End Site
                  {
                    OFFSET -1.78271 -1.18214 1.43049
                  }
                }
              }
              JOINT rIndex1
              {
                OFFSET -7.75947 0.938293 5.60832
                CHANNELS 3 Zrotation Xrotation Yrotation
                JOINT rIndex2
                {
                  OFFSET -2.54057 -0.884171 1.56538
                  CHANNELS 3 Zrotation Xrotation Yrotation
                  End Site
                  {
                    OFFSET -1.62519 -0.234802 1.16502
                  }
                }
              }
              JOINT rMid1
              {
                OFFSET -8.24714 1.18213 3.41376
                CHANNELS 3 Zrotation Xrotation Yrotation
                JOINT rMid2
                {
                  OFFSET -3.10165 -0.590103 1.0647
                  CHANNELS 3 Zrotation Xrotation Yrotation
                  End Site
                  {
                    OFFSET -2.48547 -0.328903 0.83742
                  }
                }
              }
              JOINT rRing1
              {
                OFFSET -8.82822 0.546677 1.51678
                CHANNELS 3 Zrotation Xrotation Yrotation
                JOINT rRing2
                {
                  OFFSET -2.60934 -0.819778 -0.0198488
                  CHANNELS 3 Zrotation Xrotation Yrotation
                  End Site
                  {
                    OFFSET -2.33842 -0.294052 0.168128
                  }
                }
              }
              JOINT rPinky1
              {
                OFFSET -8.27202 -0.0477905 -0.4584
                CHANNELS 3 Zrotation Xrotation Yrotation
                JOINT rPinky2
                {
                  OFFSET -1.82734 -0.647385 -0.700984
                  CHANNELS 3 Zrotation Xrotation Yrotation
                  End Site
                  {
                    OFFSET -1.69225 -0.51767 -0.607171
                  }
                }
              }
            }
          }
        }
      }
      JOINT lCollar
      {
        OFFSET 2.68224 19.2634 -4.8768
        CHANNELS 3 Zrotation Xrotation Yrotation
        JOINT lShldr
        {
          OFFSET 8.77824 -1.95073 1.46304
          CHANNELS 3 Zrotation Xrotation Yrotation
          JOINT lForeArm
          {
            OFFSET 28.1742 -1.7115 0.48768
            CHANNELS 3 Zrotation Xrotation Yrotation
            JOINT lHand
            {
              OFFSET 22.5879 0.773209 7.07136
              CHANNELS 3 Zrotation Xrotation Yrotation
              JOINT lThumb1
              {
                OFFSET 1.2192 -0.487915 3.41376
                CHANNELS 3 Zrotation Xrotation Yrotation
                JOINT lThumb2
                {
                  OFFSET 3.37035 -0.52449 3.41376
                  CHANNELS 3 Zrotation Xrotation Yrotation
                  End Site
                  {
                    OFFSET 1.78271 -1.18214 1.43049
                  }
                }
              }
              JOINT lIndex1
              {
                OFFSET 7.75947 0.938293 5.60832
                CHANNELS 3 Zrotation Xrotation Yrotation
                JOINT lIndex2
                {
                  OFFSET 2.54057 -0.884171 1.56538
                  CHANNELS 3 Zrotation Xrotation Yrotation
                  End Site
                  {
                    OFFSET 1.62519 -0.234802 1.16502
                  }
                }
              }
              JOINT lMid1
              {
                OFFSET 8.24714 1.18213 3.41376
                CHANNELS 3 Zrotation Xrotation Yrotation
                JOINT lMid2
                {
                  OFFSET 3.10165 -0.590103 1.0647
                  CHANNELS 3 Zrotation Xrotation Yrotation
                  End Site
                  {
                    OFFSET 2.48547 -0.328903 0.83742
                  }
                }
              }
              JOINT lRing1
              {
                OFFSET 8.82822 0.546677 1.51678
                CHANNELS 3 Zrotation Xrotation Yrotation
                JOINT lRing2
                {
                  OFFSET 2.60934 -0.819778 -0.0198488
                  CHANNELS 3 Zrotation Xrotation Yrotation
                  End Site
                  {
                    OFFSET 2.33842 -0.294052 0.168128
                  }
                }
              }
              JOINT lPinky1
              {
                OFFSET 8.27202 -0.0477905 -0.4584
                CHANNELS 3 Zrotation Xrotation Yrotation
                JOINT lPinky2
                {
                  OFFSET 1.82734 -0.647385 -0.700984
                  CHANNELS 3 Zrotation Xrotation Yrotation
                  End Site
                  {
                    OFFSET 1.69225 -0.51767 -0.607171
                  }
                }
              }
            }
          }
        }
      }
    }
  }
  JOINT rButtock
  {
    OFFSET -8.77824 4.35084 1.2192
    CHANNELS 3 Zrotation Xrotation Yrotation
    JOINT rThigh
    {
      OFFSET 0 -1.70687 -2.19456
      CHANNELS 3 Zrotation Xrotation Yrotation
      JOINT rShin
      {
        OFFSET 0 -36.8199 0.73152
        CHANNELS 3 Zrotation Xrotation Yrotation
        JOINT rFoot
        {
          OFFSET 0.73152 -45.1104 -5.12064
          CHANNELS 3 Zrotation Xrotation Yrotation
          End Site
          {
            OFFSET -1.1221 -3.69964 12.103
          }
        }
      }
    }
  }
  JOINT lButtock
  {
    OFFSET 8.77824 4.35084 1.2192
    CHANNELS 3 Zrotation Xrotation Yrotation
    JOINT lThigh
    {
      OFFSET 0 -1.70687 -2.19456
      CHANNELS 3 Zrotation Xrotation Yrotation
      JOINT lShin
      {
        OFFSET 0 -36.8199 0.73152
        CHANNELS 3 Zrotation Xrotation Yrotation
        JOINT lFoot
        {
          OFFSET -0.73152 -45.1104 -5.12064
          CHANNELS 3 Zrotation Xrotation Yrotation
          End Site
          {
            OFFSET 1.1221 -3.69964 12.103
          }
        }
      }
    }
  }
}
MOTION
Frames:	8
Frame Time:	0.00833333
45.1497 84.5501 -103.261 0.0 0.0 0.0 -0.73507 -0.00369185 -0.0206965 -0.202666 -0.00499137 -0.0351144 3.1204e-15 7.95139e-16 -1.61513e-16 9.72181e-15 9.54166e-15 -5.26469e-16 -0.0 0.0 0.0 -0.0 0.0 0.0 1.83748e-15 -3.10601e-18 1.49089e-16 3.53722e-14 -3.85145e-16 -1.19271e-15 6.07983e-13 -1.80496e-13 -2.54444e-14 6.92137e-12 1.77887e-13 -3.81667e-13 1.63293e-11 1.41809e-15 -8.52389e-13 2.81865e-11 3.18055e-15 -1.46942e-12 1.63314e-11 7.95139e-16 -8.5875e-13 7.73091 5.47488 0.417314 1.63267e-11 7.95139e-16 -8.55569e-13 2.90554 0.965183 0.102902 1.63303e-11 5.96354e-16 -8.47618e-13 10.2786 0.731801 0.0259123 1.63248e-11 3.97569e-15 -8.36486e-13 2.22167 -0.733487 -0.20892 1.54197e-15 -1.74713e-18 -2.48481e-16 3.4223e-14 -3.97569e-16 -2.18663e-15 6.02715e-13 1.79701e-13 -8.26944e-14 6.91097e-12 -1.81963e-13 -3.02153e-13 1.63054e-11 1.45631e-15 -8.39666e-13 2.81722e-11 6.36111e-15 -1.45669e-12 1.63043e-11 3.97569e-16 -8.30125e-13 -7.73091 5.47488 -0.417314 1.6307e-11 2.98177e-16 -8.55569e-13 -2.90554 0.965183 -0.102902 1.63061e-11 9.93923e-16 -8.45232e-13 -10.2786 0.731801 -0.0259123 1.63156e-11 4.77083e-15 -8.55569e-13 -2.22167 -0.733487 0.20892 -2.03217e-16 0.0 -3.88251e-19 -0.0338197 -2.13127 -0.0183759 -0.00890405 -1.69209 -0.0751029 -0.522971 3.82304 0.138323 2.03217e-16 0.0 3.88251e-19 -1.08333 -4.91191 0.0910211 0.00129058 3.34456 -0.00266329 0.531134 1.56716 -0.0928334
40.8942 82.7718 -106.941 3.1604 -75.2257 2.3894 -0.944869 -1.37954 0.608201 0.715647 0.477699 0.117494 -0.425168 -0.864818 1.64662 0.102418 1.18622 3.28845 -0.0 0.0 0.0 -0.0 0.0 0.0 5.15259e-15 -6.73421e-14 7.18075e-14 22.0382 2.7075 0.591699 -3.94395 -1.74046 6.21484 0.00100831 -0.709152 -0.0996379 7.72721e-11 -1.67279e-10 3.03196e-10 1.33243e-10 -2.894e-10 5.24385e-10 7.72735e-11 -1.67279e-10 3.03194e-10 7.73091 5.47488 0.417314 7.72703e-11 -1.67279e-10 3.03197e-10 2.90554 0.965183 0.102902 7.72751e-11 -1.6728e-10 3.03202e-10 10.2786 0.731801 0.0259123 7.72667e-11 -1.67277e-10 3.03211e-10 2.22167 -0.733487 -0.20892 4.93023e-15 -6.73413e-14 7.14755e-14 -22.7309 7.34049 -1.15651 3.72526 -1.60497 -5.91018 -0.0285295 3.74891 -0.522811 1.72725e-10 2.89115e-10 1.22488e-10 3.00971e-10 4.99067e-10 2.10357e-10 1.72724e-10 2.89114e-10 1.22496e-10 -7.73091 5.47488 -0.417314 1.72726e-10 2.89114e-10 1.22476e-10 -2.90554 0.965183 -0.102902 1.72725e-10 2.89115e-10 1.22484e-10 -10.2786 0.731801 -0.0259123 1.72732e-10 2.89118e-10 1.22476e-10 -2.22167 -0.733487 0.20892 -2.03217e-16 0.0 -3.88251e-19 -0.571007 -6.08934 0.214732 0.0356602 8.48308 0.115072 -0.991689 -3.05569 -3.01461 2.03217e-16 0.0 3.88251e-19 -0.052211 -7.73965 0.914487 -0.00642128 10.5806 -0.113673 0.609351 -3.19478 0.811738
40.8867 82.7615 -107.012 1.8185 -75.1532 3.7302 -1.14091 -2.83551 1.27385 1.68668 0.987848 0.278823 -0.819369 -1.79108 3.39086 0.0721803 2.44954 6.77355 -0.0 0.0 0.0 -0.0 0.0 0.0 8.86062e-15 -1.35361e-13 1.43016e-13 45.2739 5.56792 1.21878 -7.70652 -3.51293 12.805 -0.000625222 -1.4683 -0.206352 1.87475e-10 -2.83187e-10 6.1814e-10 3.23522e-10 -4.89792e-10 1.06898e-09 1.87476e-10 -2.83187e-10 6.18141e-10 7.73091 5.47488 0.417314 1.87474e-10 -2.83186e-10 6.18145e-10 2.90554 0.965183 0.102902 1.87481e-10 -2.83187e-10 6.18145e-10 10.2786 0.731801 0.0259123 1.87469e-10 -2.83185e-10 6.18152e-10 2.22167 -0.733487 -0.20892 8.71688e-15 -1.35361e-13 1.42752e-13 -46.4275 15.0992 -2.44553 7.30355 -3.24348 -12.1699 0.0162876 7.70223 -1.08176 3.95025e-10 5.7131e-10 2.54806e-10 6.87799e-10 9.85644e-10 4.36939e-10 3.95024e-10 5.71309e-10 2.54813e-10 -7.73091 5.47488 -0.417314 3.95026e-10 5.71308e-10 2.54799e-10 -2.90554 0.965183 -0.102902 3.95025e-10 5.71309e-10 2.54804e-10 -10.2786 0.731801 -0.0259123 3.95029e-10 5.71313e-10 2.54798e-10 -2.22167 -0.733487 0.20892 -2.03217e-16 0.0 -3.88251e-19 -1.11084 -10.2737 0.461452 0.00606737 19.2403 0.331995 -2.31843 -10.2749 -6.43755 2.03217e-16 0.0 3.88251e-19 1.12133 -10.7259 1.79995 0.0174432 18.229 -0.239037 0.857367 -8.22457 1.7861
40.9056 82.7607 -106.991 2.2492 -75.148 3.3692 -1.27367 -4.12927 1.87032 2.54456 1.44304 0.422834 -1.12646 -2.58588 4.94435 -0.0996471 3.51178 9.88196 -0.0 0.0 0.0 -0.0 0.0 0.0 1.17828e-14 -2.0202e-13 2.15124e-13 65.9454 8.119 1.79107 -10.7177 -4.97615 18.709 -0.0043787 -2.12743 -0.299097 1.99158e-10 -5.0184e-10 9.11294e-10 3.43357e-10 -8.68208e-10 1.57609e-09 1.99158e-10 -5.01839e-10 9.11299e-10 7.73091 5.47488 0.417314 1.99158e-10 -5.01838e-10 9.11302e-10 2.90554 0.965183 0.102902 1.99165e-10 -5.0184e-10 9.113e-10 10.2786 0.731801 0.0259123 1.99151e-10 -5.01839e-10 9.11305e-10 2.22167 -0.733487 -0.20892 1.17068e-14 -2.0202e-13 2.14923e-13 -67.245 21.9841 -3.71129 10.1973 -4.61037 -17.783 0.123049 11.2429 -1.59571 4.85564e-10 8.67342e-10 3.69143e-10 8.46569e-10 1.49719e-09 6.33985e-10 4.85563e-10 8.67342e-10 3.69149e-10 -7.73091 5.47488 -0.417314 4.85565e-10 8.6734e-10 3.69141e-10 -2.90554 0.965183 -0.102902 4.85563e-10 8.67342e-10 3.69142e-10 -10.2786 0.731801 -0.0259123 4.85565e-10 8.67345e-10 3.69139e-10 -2.22167 -0.733487 0.20892 -2.03217e-16 0.0 -3.88251e-19 -1.54615 -14.0046 0.698038 -0.0993376 28.8323 0.561143 -4.26497 -16.5979 -9.71549 2.03217e-16 0.0 3.88251e-19 2.26023 -13.3847 2.60798 0.0700542 25.0524 -0.364165 1.22563 -12.7061 2.68277
40.9128 82.7661 -106.947 2.9674 -75.1037 2.6514 -1.31249 -5.01943 2.28973 3.12497 1.76089 0.523432 -1.3252 -3.06058 6.01631 -0.325962 4.11826 12.0314 -0.0 0.0 0.0 -0.0 0.0 0.0 1.27405e-14 -2.65279e-13 2.8948e-13 80.3246 9.9 2.21141 -12.63 -5.90041 22.836 -0.00789769 -2.53656 -0.356725 -3.54624e-11 -9.77356e-10 1.14997e-09 -6.29146e-11 -1.69169e-09 1.98953e-09 -3.5462e-11 -9.77354e-10 1.14998e-09 7.73091 5.47488 0.417314 -3.54617e-11 -9.77353e-10 1.14998e-09 2.90554 0.965183 0.102902 -3.5454e-11 -9.77355e-10 1.14998e-09 10.2786 0.731801 0.0259123 -3.54691e-11 -9.77355e-10 1.14998e-09 2.22167 -0.733487 -0.20892 1.27048e-14 -2.65279e-13 2.89331e-13 -81.5573 26.7203 -4.68777 12.0619 -5.49215 -21.7297 0.237842 13.7556 -1.97163 2.467e-10 1.19797e-09 4.38529e-10 4.35194e-10 2.07115e-09 7.57194e-10 2.46697e-10 1.19797e-09 4.38535e-10 -7.73091 5.47488 -0.417314 2.467e-10 1.19797e-09 4.38529e-10 -2.90554 0.965183 -0.102902 2.46698e-10 1.19797e-09 4.38528e-10 -10.2786 0.731801 -0.0259123 2.46699e-10 1.19797e-09 4.38525e-10 -2.22167 -0.733487 0.20892 -2.03217e-16 0.0 -3.88251e-19 -1.78785 -16.6025 0.894582 -0.230044 35.5124 0.75669 -6.09292 -20.8927 -12.2185 2.03217e-16 0.0 3.88251e-19 3.13394 -15.2338 3.18331 0.127246 29.8136 -0.462955 1.56499 -15.8297 3.32259
40.9053 82.7683 -106.931 3.2159 -75.0858 2.396 -1.23475 -5.34423 2.45758 3.31158 1.88605 0.562849 -1.42149 -3.07018 6.40606 -0.50975 4.08218 12.8172 -0.0 0.0 0.0 -0.0 0.0 0.0 1.25347e-14 -3.24717e-13 3.81446e-13 85.9534 10.6116 2.41108 -13.3286 -6.22934 24.4335 -0.00854287 -2.56994 -0.361438 -7.55967e-10 -1.96321e-09 1.35605e-09 -1.30974e-09 -3.39938e-09 2.34753e-09 -7.55964e-10 -1.96321e-09 1.35605e-09 7.73091 5.47488 0.417314 -7.55965e-10 -1.96321e-09 1.35606e-09 2.90554 0.965183 0.102902 -7.55957e-10 -1.96321e-09 1.35605e-09 10.2786 0.731801 0.0259123 -7.55971e-10 -1.96321e-09 1.35606e-09 2.22167 -0.733487 -0.20892 1.24966e-14 -3.24716e-13 3.81339e-13 -87.1207 28.4682 -5.07224 12.7795 -5.83251 -23.3244 0.296347 14.8445 -2.13788 -6.08237e-10 1.62602e-09 3.94655e-10 -1.04273e-09 2.81869e-09 6.91974e-10 -6.08241e-10 1.62602e-09 3.94666e-10 -7.73091 5.47488 -0.417314 -6.08236e-10 1.62602e-09 3.94656e-10 -2.90554 0.965183 -0.102902 -6.0824e-10 1.62602e-09 3.94653e-10 -10.2786 0.731801 -0.0259123 -6.08238e-10 1.62602e-09 3.9465e-10 -2.22167 -0.733487 0.20892 -2.03217e-16 0.0 -3.88251e-19 -1.77705 -17.6169 1.02723 -0.298707 38.1158 0.845345 -6.94402 -22.5068 -13.3145 2.03217e-16 0.0 3.88251e-19 3.56565 -15.9566 3.40116 0.154942 31.6884 -0.505254 1.70597 -17.0639 3.54464
40.906 82.7695 -106.925 3.4312 -75.1483 2.1916 -1.081 -5.26566 2.44496 3.21783 1.87361 0.558557 -1.4527 -2.75 6.30829 -0.641757 3.59601 12.6283 -0.0 0.0 0.0 -0.0 0.0 0.0 1.14223e-14 -3.81384e-13 4.85302e-13 85.3451 10.5599 2.44973 -13.2319 -6.17872 24.2152 -0.00694117 -2.33616 -0.328515 -1.81681e-09 -3.30641e-09 1.53675e-09 -3.14535e-09 -5.72621e-09 2.66233e-09 -1.81681e-09 -3.30641e-09 1.53675e-09 7.73091 5.47488 0.417314 -1.81681e-09 -3.30641e-09 1.53676e-09 2.90554 0.965183 0.102902 -1.8168e-09 -3.30641e-09 1.53676e-09 10.2786 0.731801 0.0259123 -1.81681e-09 -3.30641e-09 1.53676e-09 2.22167 -0.733487 -0.20892 1.13517e-14 -3.81379e-13 4.8523e-13 -86.5278 28.0902 -4.97842 12.7425 -5.825 -23.2304 0.297341 14.9167 -2.14845 -1.89585e-09 2.12133e-09 2.72279e-10 -3.26969e-09 3.6861e-09 4.96213e-10 -1.89586e-09 2.12133e-09 2.72296e-10 -7.73091 5.47488 -0.417314 -1.89585e-09 2.12133e-09 2.72279e-10 -2.90554 0.965183 -0.102902 -1.89585e-09 2.12133e-09 2.72276e-10 -10.2786 0.731801 -0.0259123 -1.89585e-09 2.12133e-09 2.72269e-10 -2.22167 -0.733487 0.20892 -2.03217e-16 0.0 -3.88251e-19 -1.59631 -17.5004 1.11053 -0.293415 37.8078 0.836013 -6.88897 -22.2595 -13.3012 2.03217e-16 0.0 3.88251e-19 3.66161 -15.8764 3.35744 0.151749 31.5016 -0.500907 1.66859 -16.9513 3.45432
40.9178 82.7678 -106.964 2.7247 -75.1787 2.8591 -0.918593 -5.02831 2.36139 3.02437 1.8068 0.537291 -1.45162 -2.33396 6.02404 -0.748154 2.98563 12.0672 -0.0 0.0 0.0 -0.0 0.0 0.0 7.40831e-15 -4.35434e-13 5.70773e-13 82.2354 10.1925 2.41937 -12.8197 -5.97828 23.2781 -0.00511797 -2.03672 -0.286363 -2.7881e-09 -4.55138e-09 1.63746e-09 -4.82606e-09 -7.8829e-09 2.83869e-09 -2.78809e-09 -4.55138e-09 1.63746e-09 7.73091 5.47488 0.417314 -2.7881e-09 -4.55138e-09 1.63746e-09 2.90554 0.965183 0.102902 -2.78809e-09 -4.55138e-09 1.63746e-09 10.2786 0.731801 0.0259123 -2.7881e-09 -4.55138e-09 1.63747e-09 2.22167 -0.733487 -0.20892 7.29987e-15 -4.35427e-13 5.70723e-13 -83.4701 26.8735 -4.70565 12.396 -5.67272 -22.4426 0.273376 14.5614 -2.09322 -3.10868e-09 2.56515e-09 1.99023e-10 -5.36691e-09 4.46356e-09 3.84323e-10 -3.10869e-09 2.56516e-09 1.99046e-10 -7.73091 5.47488 -0.417314 -3.10868e-09 2.56515e-09 1.99022e-10 -2.90554 0.965183 -0.102902 -3.10869e-09 2.56515e-09 1.99018e-10 -10.2786 0.731801 -0.0259123 -3.10868e-09 2.56515e-09 1.99009e-10 -2.22167 -0.733487 0.20892 -2.03217e-16 0.0 -3.88251e-19 -1.37188 -16.9279 1.16949 -0.258473 36.3366 0.787435 -6.46359 -21.2807 -12.829 2.03217e-16 0.0 3.88251e-19 3.60546 -15.4731 3.22167 0.136222 30.4895 -0.477896 1.56694 -16.2955 3.25555
